# Blender 4.4.3
# www.blender.org
o Cube
v -65.000000 -1.440616 42.000000
v -65.000000 -0.040616 42.000000
v -65.000000 -1.440622 -42.000000
v -65.000000 -0.040622 -42.000000
v 65.000000 -1.440616 42.000000
v 65.000000 -0.040616 42.000000
v 65.000000 -1.440622 -42.000000
v 65.000000 -0.040622 -42.000000
vn -1.0000 -0.0000 -0.0000
vn -0.0000 -0.0000 -1.0000
vn 1.0000 -0.0000 -0.0000
vn -0.0000 -0.0000 1.0000
vn -0.0000 -1.0000 -0.0000
vn -0.0000 1.0000 -0.0000
vt 0.029546 0.805740
vt 0.029546 0.808016
vt 0.031823 0.808016
vt 0.031823 0.805740
vt 0.000000 1.000000
vt 1.000000 1.000000
vt 1.000000 0.000000
vt 0.000000 0.000000
s 1
f 1/1/1 2/1/1 4/2/1 3/2/1
f 3/2/2 4/2/2 8/3/2 7/3/2
f 7/3/3 8/3/3 6/4/3 5/4/3
f 5/4/4 6/4/4 2/1/4 1/1/4
f 3/5/5 7/6/5 5/7/5 1/8/5
f 8/6/6 4/5/6 2/8/6 6/7/6
